<?xml version="1.0" encoding="UTF-8"?>
<svg xmlns="http://www.w3.org/2000/svg" id="Capa_1" width="150" height="135" version="1.1" viewBox="0 0 150 135">
  <defs>
    <style>
      .st0 {
        fill: #fff;
      }
    </style>
  </defs>
  <polygon class="st0" points="16.3 134.9 16.3 128.4 21.6 128.4 21.6 129.3 17.5 129.3 17.5 131.1 21.2 131.1 21.2 132.1 17.5 132.1 17.5 134 21.6 134 21.6 134.9 16.3 134.9"></polygon>
  <g>
    <path class="st0" d="M23.1,133.1l1.2-.2c.3.8,1.1,1.2,2.2,1.2s1.5-.3,1.5-1-.6-.8-1.8-1c-1.4-.2-2.7-.5-2.7-1.9s1-1.9,2.6-1.9,2.1.3,2.8,1.1l-.8.7c-.5-.5-1.2-.8-2.1-.8s-1.3.3-1.3.8.6.7,1.8,1c1.2.2,2.7.5,2.7,2s-.9,2-2.8,2-3-.8-3.4-1.9"></path>
    <path class="st0" d="M32.6,131.4h2c.6,0,1.3-.1,1.3-1s-.7-1-1.3-1h-2v2.1ZM31.4,134.9v-6.5h3.3c1.4,0,2.5.3,2.5,1.9s-1.2,2-2.5,2h-2.1v2.6h-1.2Z"></path>
  </g>
  <path class="st0" d="M40.2,132.5h2.3l-1.2-2.9-1.2,2.9ZM43.5,134.9l-.6-1.4h-3l-.6,1.4h-1.3l2.8-6.5h1.3l2.8,6.5h-1.3Z"></path>
  <path class="st0" d="M46,131.6c0-2.1,1.4-3.4,3.7-3.4s2.8.6,3.4,1.8l-1.2.4c-.4-.8-1.1-1.2-2.3-1.2-1.6,0-2.5.9-2.5,2.4s.9,2.4,2.5,2.4,1.9-.4,2.3-1.3l1.2.4c-.6,1.3-1.8,1.9-3.4,1.9s-3.7-1.3-3.7-3.4"></path>
  <rect class="st0" x="55.1" y="128.4" width="1.2" height="6.5"></rect>
  <g>
    <path class="st0" d="M64.6,131.6c0-1.4-.9-2.4-2.5-2.4s-2.5.9-2.5,2.4.9,2.3,2.5,2.3,2.5-.9,2.5-2.3M58.4,131.6c0-2,1.4-3.4,3.7-3.4s3.7,1.3,3.7,3.4-1.4,3.4-3.7,3.4-3.7-1.3-3.7-3.4"></path>
    <path class="st0" d="M72.6,133.8h1.7c1,0,2.4-.3,2.4-2.2s-1.1-2.2-2.3-2.2h-1.8v4.4ZM71.4,134.9v-6.5h3.2c2.2,0,3.4,1.2,3.4,3.3s-1.2,3.2-3.4,3.2h-3.2Z"></path>
  </g>
  <polygon class="st0" points="80.1 134.9 80.1 128.4 85.3 128.4 85.3 129.3 81.3 129.3 81.3 131.1 85 131.1 85 132.1 81.3 132.1 81.3 134 85.3 134 85.3 134.9 80.1 134.9"></polygon>
  <path class="st0" d="M92.2,133.8h1.7c1,0,2.4-.3,2.4-2.2s-1.1-2.2-2.3-2.2h-1.8v4.4ZM91,134.9v-6.5h3.2c2.2,0,3.4,1.2,3.4,3.3s-1.2,3.2-3.4,3.2h-3.2Z"></path>
  <rect class="st0" x="99.7" y="128.4" width="1.2" height="6.5"></rect>
  <path class="st0" d="M102.8,133.1l1.2-.2c.3.8,1.1,1.2,2.2,1.2s1.5-.3,1.5-1-.6-.8-1.8-1c-1.4-.2-2.7-.5-2.7-1.9s1-1.9,2.6-1.9,2.1.3,2.8,1.1l-.8.7c-.5-.5-1.2-.8-2.1-.8s-1.3.3-1.3.8.6.7,1.8,1c1.2.2,2.7.5,2.7,2s-.9,2-2.8,2-3-.8-3.4-1.9"></path>
  <polygon class="st0" points="111.1 134.9 111.1 128.4 116.3 128.4 116.3 129.3 112.3 129.3 112.3 131.1 115.9 131.1 115.9 132.1 112.3 132.1 112.3 134 116.3 134 116.3 134.9 111.1 134.9"></polygon>
  <g>
    <path class="st0" d="M120.4,127.7h-.6c0-.7.4-1.2,1-1.2s.8.7,1.2.7.3-.2.3-.6h.6c0,.8-.4,1.3-.9,1.3s-.8-.7-1.2-.7-.3.2-.3.6M123.2,128.4h1.2v6.5h-1.2l-3.6-4.7v4.7h-1.2v-6.5h1.2l3.6,4.7v-4.7Z"></path>
    <path class="st0" d="M132.7,131.6c0-1.4-.9-2.4-2.5-2.4s-2.5.9-2.5,2.4.9,2.3,2.5,2.3,2.5-.9,2.5-2.3M126.5,131.6c0-2,1.4-3.4,3.7-3.4s3.7,1.3,3.7,3.4-1.4,3.4-3.7,3.4-3.7-1.3-3.7-3.4"></path>
  </g>
  <rect class="st0" x="45.4" y="48.5" width="10.8" height="10.8"></rect>
  <rect class="st0" x="58.2" y="-.2" width="33.8" height="10.8"></rect>
  <rect class="st0" x="94.1" y="48.5" width="10.8" height="10.8"></rect>
  <rect class="st0" x="58.2" y="48.5" width="33.8" height="10.8"></rect>
  <rect class="st0" x="94.1" y="12.7" width="10.8" height="33.8"></rect>
  <rect class="st0" x="94.1" y="-.2" width="10.8" height="10.8"></rect>
  <rect class="st0" x="45.4" y="-.2" width="10.8" height="10.8"></rect>
  <rect class="st0" x="45.4" y="12.7" width="10.8" height="33.8"></rect>
  <path class="st0" d="M26.5,103.5h5.7l-2.9-15-2.8,15ZM25.7,107.8l-1,5.6h-5.4l7.1-32.5h5.9l7.1,32.5h-5.5l-1-5.6h-7.3Z"></path>
  <path class="st0" d="M46.8,103.6v1.5c0,1.2.3,2.2.9,2.9.6.7,1.4,1.1,2.3,1.1s1.7-.3,2.4-1c.6-.7.9-1.6.9-2.8s-.2-1.5-.5-2.1c-.3-.6-.8-1.1-1.4-1.7-.6-.5-1.6-1.3-3-2.3-1.5-1.1-2.8-2.1-3.7-3-.9-.9-1.7-1.9-2.4-3.1-.6-1.2-1-2.6-1-4.3,0-2.6.8-4.6,2.3-6.1,1.5-1.5,3.6-2.3,6.1-2.3s4.6.8,6.2,2.4c1.6,1.6,2.4,3.7,2.4,6.3v1.7h-5.3v-1.8c0-1.2-.3-2.2-.9-2.9-.6-.7-1.4-1.1-2.4-1.1s-1.7.3-2.3,1c-.6.7-.9,1.6-.9,2.8s.3,2.1,1,2.8c.6.8,1.9,1.8,3.7,3.2,1.9,1.4,3.3,2.5,4.3,3.4,1,.9,1.7,1.9,2.2,2.9.5,1.1.8,2.3.8,3.8,0,2.6-.8,4.7-2.4,6.3-1.6,1.6-3.7,2.4-6.2,2.4s-4.6-.8-6.2-2.3c-1.6-1.5-2.4-3.6-2.4-6.1v-1.8h5.3Z"></path>
  <polygon class="st0" points="97.1 99.4 97.1 113.4 91.7 113.4 91.7 81.4 91.7 80.9 107.9 80.9 107.9 85.5 97.1 85.5 97.1 94.8 103.8 94.8 103.8 99.4 97.1 99.4"></polygon>
  <path class="st0" d="M121.9,108c.7-.7,1-1.7,1-2.9v-16.1c0-1.2-.3-2.1-1-2.9-.7-.7-1.5-1.1-2.6-1.1s-1.9.4-2.5,1.1c-.6.7-1,1.7-1,2.9v16.1c0,1.2.3,2.1,1,2.9.6.7,1.5,1.1,2.5,1.1s1.9-.4,2.6-1.1M112.9,111.3c-1.6-1.6-2.4-3.7-2.4-6.4v-15.6c0-2.7.8-4.8,2.4-6.4,1.6-1.6,3.8-2.4,6.4-2.4s4.8.8,6.5,2.4c1.6,1.6,2.5,3.7,2.5,6.4v15.6c0,2.7-.8,4.8-2.5,6.4-1.6,1.6-3.8,2.4-6.5,2.4s-4.8-.8-6.4-2.4"></path>
  <path class="st0" d="M67.6,103.5h5.7l-2.9-15-2.8,15ZM66.9,107.8l-1,5.6h-5.4l7.1-32.5h5.9l7.1,32.5h-5.5l-1-5.6h-7.3Z"></path>
  <path class="st0" d="M137.5,103.5h5.7l-2.9-15-2.8,15ZM136.8,107.8l-1,5.6h-5.4l7.1-32.5h5.9l7.1,32.5h-5.5l-1-5.6h-7.3Z"></path>
  <path class="st0" d="M17.3,89.2c0-2.7-.8-4.8-2.4-6.3-1.6-1.6-3.7-2.3-6.4-2.3s-4.7.8-6.3,2.3c-1.6,1.6-2.4,3.7-2.4,6.3v15.8c0,2.6.8,4.7,2.4,6.3,1.6,1.6,3.7,2.4,6.3,2.4s4.8-.8,6.4-2.4c1.6-1.6,2.4-3.7,2.4-6.3v-1.3h-5.4v1.7c0,1.1-.3,2-.9,2.6-.6.7-1.4,1-2.5,1s-1.8-.3-2.4-1c-.6-.7-.9-1.6-.9-2.6v-16.6c0-1.1.3-2,.9-2.6.6-.7,1.4-1,2.4-1s1.8.3,2.5,1c.6.7.9,1.6.9,2.6v1.7h5.4v-1.3Z"></path>
</svg>
